HIERARCHY
ROOT newVegas:Hips
{
	OFFSET 0.000000 96.479958 0.000000
	CHANNELS 6 Xposition Yposition Zposition Xrotation Yrotation Zrotation
	JOINT newVegas:Pelvis
	{
		OFFSET 0.000000 0.000000 0.000000
		CHANNELS 3 Xrotation Yrotation Zrotation
		JOINT newVegas:LeftUpLeg
		{
			OFFSET 18.735201 -5.666702 -4.541200
			CHANNELS 3 Xrotation Yrotation Zrotation
			JOINT newVegas:LeftLeg
			{
				OFFSET -0.021200 -31.938179 0.493100
				CHANNELS 3 Xrotation Yrotation Zrotation
				JOINT newVegas:LeftFoot
				{
					OFFSET 0.021200 -31.938179 -4.336299
					CHANNELS 3 Xrotation Yrotation Zrotation
					JOINT newVegas:LeftToeBase
					{
						OFFSET 0.943001 -26.722000 15.023500
						CHANNELS 3 Xrotation Yrotation Zrotation
						End Site
						{
							OFFSET 0.000000 30.670183 0.000000
						}
					}
				}
				JOINT newVegas:Left_PantLeg
				{
					OFFSET 0.663870 -9.044666 -1.108900
					CHANNELS 3 Xrotation Yrotation Zrotation
					End Site
					{
						OFFSET 1.415995 20.635357 0.000000
					}
				}
			}
		}
		JOINT newVegas:RightUpLeg
		{
			OFFSET -18.735201 -5.666702 -4.541200
			CHANNELS 3 Xrotation Yrotation Zrotation
			JOINT newVegas:RightLeg
			{
				OFFSET 0.018946 -31.938133 0.493100
				CHANNELS 3 Xrotation Yrotation Zrotation
				JOINT newVegas:RightFoot
				{
					OFFSET -0.018946 -31.938126 -4.336299
					CHANNELS 3 Xrotation Yrotation Zrotation
					JOINT newVegas:RightToeBase
					{
						OFFSET -0.943001 -26.722004 15.023500
						CHANNELS 3 Xrotation Yrotation Zrotation
						End Site
						{
							OFFSET 0.000000 30.670187 0.000000
						}
					}
				}
				JOINT newVegas:Right_PantLeg
				{
					OFFSET -0.661674 -9.044716 -1.108900
					CHANNELS 3 Xrotation Yrotation Zrotation
					End Site
					{
						OFFSET -1.415958 20.635269 0.000000
					}
				}
			}
		}
	}
	JOINT newVegas:Spine
	{
		OFFSET 0.000000 10.199997 -0.299500
		CHANNELS 3 Xrotation Yrotation Zrotation
		JOINT newVegas:Spine1
		{
			OFFSET 0.000000 11.900002 -1.516600
			CHANNELS 3 Xrotation Yrotation Zrotation
			JOINT newVegas:Spine2
			{
				OFFSET 0.000000 13.600006 -2.842500
				CHANNELS 3 Xrotation Yrotation Zrotation
				JOINT newVegas:Neck
				{
					OFFSET 0.000000 9.624100 -2.890100
					CHANNELS 3 Xrotation Yrotation Zrotation
					JOINT newVegas:Head
					{
						OFFSET 0.000000 14.068802 -1.351900
						CHANNELS 3 Xrotation Yrotation Zrotation
						JOINT newVegas:Hair_Back
						{
							OFFSET 0.000000 3.231903 -17.524799
							CHANNELS 3 Xrotation Yrotation Zrotation
							End Site
							{
								OFFSET 0.000000 19.849884 0.000000
							}
						}
						JOINT newVegas:Hair_Front
						{
							OFFSET 0.000000 31.260406 4.573800
							CHANNELS 3 Xrotation Yrotation Zrotation
							JOINT newVegas:Hair_Front1
							{
								OFFSET 0.000000 2.284103 11.993300
								CHANNELS 3 Xrotation Yrotation Zrotation
								JOINT newVegas:Hair_Front2
								{
									OFFSET 0.000000 2.284103 11.993300
									CHANNELS 3 Xrotation Yrotation Zrotation
									End Site
									{
										OFFSET 0.000000 12.208862 0.000000
									}
								}
							}
						}
						JOINT newVegas:Jowel
						{
							OFFSET 0.000000 -7.458206 6.864100
							CHANNELS 3 Xrotation Yrotation Zrotation
							End Site
							{
								OFFSET 0.000000 19.849884 0.000000
							}
						}
					}
				}
				JOINT newVegas:LeftShoulder
				{
					OFFSET 15.263000 10.923401 -0.547700
					CHANNELS 3 Xrotation Yrotation Zrotation
					JOINT newVegas:LeftArm
					{
						OFFSET 25.438599 -2.830597 -13.032500
						CHANNELS 3 Xrotation Yrotation Zrotation
						JOINT newVegas:LeftForeArm
						{
							OFFSET 29.960503 0.000000 0.000000
							CHANNELS 3 Xrotation Yrotation Zrotation
							JOINT newVegas:LeftHand
							{
								OFFSET 27.849251 0.000000 0.000000
								CHANNELS 3 Xrotation Yrotation Zrotation
								JOINT newVegas:LeftHandThumb1
								{
									OFFSET 4.487587 -3.305161 6.305391
									CHANNELS 3 Xrotation Yrotation Zrotation
									JOINT newVegas:LeftHandThumb2
									{
										OFFSET 5.480453 -3.164139 3.164143
										CHANNELS 3 Xrotation Yrotation Zrotation
										JOINT newVegas:LeftHandThumb3
										{
											OFFSET 5.159721 -2.978973 2.978967
											CHANNELS 3 Xrotation Yrotation Zrotation
											End Site
											{
												OFFSET 2.494507 5.926697 1.738678
											}
										}
									}
								}
								JOINT newVegas:LeftHandIndex1
								{
									OFFSET 18.578728 -0.527832 5.208049
									CHANNELS 3 Xrotation Yrotation Zrotation
									JOINT newVegas:LeftHandIndex2
									{
										OFFSET 3.192009 0.000000 0.000000
										CHANNELS 3 Xrotation Yrotation Zrotation
										JOINT newVegas:LeftHandIndex3
										{
											OFFSET 3.835129 0.000000 0.000000
											CHANNELS 3 Xrotation Yrotation Zrotation
											End Site
											{
												OFFSET -0.034599 3.816971 0.371180
											}
										}
									}
								}
								JOINT newVegas:LeftHandMiddle1
								{
									OFFSET 18.476105 0.000000 0.000000
									CHANNELS 3 Xrotation Yrotation Zrotation
									JOINT newVegas:LeftHandMiddle2
									{
										OFFSET 3.324875 0.000000 0.000000
										CHANNELS 3 Xrotation Yrotation Zrotation
										JOINT newVegas:LeftHandMiddle3
										{
											OFFSET 4.596550 0.000000 0.000000
											CHANNELS 3 Xrotation Yrotation Zrotation
											End Site
											{
												OFFSET 0.057701 4.578827 0.399218
											}
										}
									}
								}
								JOINT newVegas:LeftHandRing1
								{
									OFFSET 17.732719 0.121887 -4.201567
									CHANNELS 3 Xrotation Yrotation Zrotation
									JOINT newVegas:LeftHandRing2
									{
										OFFSET 2.733170 0.000000 0.000000
										CHANNELS 3 Xrotation Yrotation Zrotation
										JOINT newVegas:LeftHandRing3
										{
											OFFSET 3.178268 0.000000 0.000000
											CHANNELS 3 Xrotation Yrotation Zrotation
											End Site
											{
												OFFSET 0.119102 3.170624 0.185394
											}
										}
									}
								}
								JOINT newVegas:LeftHandPinky1
								{
									OFFSET 15.989624 -0.606689 -7.535461
									CHANNELS 3 Xrotation Yrotation Zrotation
									JOINT newVegas:LeftHandPinky2
									{
										OFFSET 2.538986 0.000000 0.000000
										CHANNELS 3 Xrotation Yrotation Zrotation
										JOINT newVegas:LeftHandPinky3
										{
											OFFSET 2.593102 0.000000 0.000000
											CHANNELS 3 Xrotation Yrotation Zrotation
											End Site
											{
												OFFSET -0.150902 2.584198 0.152708
											}
										}
									}
								}
							}
							JOINT newVegas:Left_Sleeve
							{
								OFFSET 0.267448 -0.649796 0.577675
								CHANNELS 3 Xrotation Yrotation Zrotation
								End Site
								{
									OFFSET 0.000000 15.991241 0.000000
								}
							}
							JOINT newVegas:Left_CapeC
							{
								OFFSET 15.715958 -8.608795 -6.935905
								CHANNELS 3 Xrotation Yrotation Zrotation
								JOINT newVegas:Left_CapeC1
								{
									OFFSET 0.000000 -8.688499 0.000000
									CHANNELS 3 Xrotation Yrotation Zrotation
									End Site
									{
										OFFSET 0.000000 8.688499 0.000000
									}
								}
							}
						}
						JOINT newVegas:Left_CapeB
						{
							OFFSET 26.118385 -8.608795 -7.079235
							CHANNELS 3 Xrotation Yrotation Zrotation
							JOINT newVegas:Left_CapeB1
							{
								OFFSET 0.000000 -8.688499 0.000000
								CHANNELS 3 Xrotation Yrotation Zrotation
								End Site
								{
									OFFSET 0.000000 8.688499 0.000000
								}
							}
						}
						JOINT newVegas:Left_CapeA
						{
							OFFSET 5.115639 -8.608795 -10.395809
							CHANNELS 3 Xrotation Yrotation Zrotation
							JOINT newVegas:Left_CapeA1
							{
								OFFSET 0.000000 -8.688499 0.000000
								CHANNELS 3 Xrotation Yrotation Zrotation
								End Site
								{
									OFFSET 0.000000 8.688499 0.000000
								}
							}
						}
					}
				}
				JOINT newVegas:RightShoulder
				{
					OFFSET -15.263000 10.923401 -0.547700
					CHANNELS 3 Xrotation Yrotation Zrotation
					JOINT newVegas:RightArm
					{
						OFFSET -25.438599 -2.830597 -13.032500
						CHANNELS 3 Xrotation Yrotation Zrotation
						JOINT newVegas:RightForeArm
						{
							OFFSET -29.960503 0.000000 0.000000
							CHANNELS 3 Xrotation Yrotation Zrotation
							JOINT newVegas:RightHand
							{
								OFFSET -27.849251 0.000000 0.000000
								CHANNELS 3 Xrotation Yrotation Zrotation
								JOINT newVegas:RightHandThumb1
								{
									OFFSET -4.487587 -3.305161 6.305391
									CHANNELS 3 Xrotation Yrotation Zrotation
									JOINT newVegas:RightHandThumb2
									{
										OFFSET -5.480453 -3.164139 3.164143
										CHANNELS 3 Xrotation Yrotation Zrotation
										JOINT newVegas:RightHandThumb3
										{
											OFFSET -5.159721 -2.978973 2.978967
											CHANNELS 3 Xrotation Yrotation Zrotation
											End Site
											{
												OFFSET -2.494507 5.926697 1.738678
											}
										}
									}
								}
								JOINT newVegas:RightHandIndex1
								{
									OFFSET -18.578728 -0.527832 5.208049
									CHANNELS 3 Xrotation Yrotation Zrotation
									JOINT newVegas:RightHandIndex2
									{
										OFFSET -3.192009 0.000000 0.000000
										CHANNELS 3 Xrotation Yrotation Zrotation
										JOINT newVegas:RightHandIndex3
										{
											OFFSET -3.835129 0.000000 0.000000
											CHANNELS 3 Xrotation Yrotation Zrotation
											End Site
											{
												OFFSET 0.034599 3.816971 0.371180
											}
										}
									}
								}
								JOINT newVegas:RightHandMiddle1
								{
									OFFSET -18.476105 0.000000 0.000000
									CHANNELS 3 Xrotation Yrotation Zrotation
									JOINT newVegas:RightHandMiddle2
									{
										OFFSET -3.324875 0.000000 0.000000
										CHANNELS 3 Xrotation Yrotation Zrotation
										JOINT newVegas:RightHandMiddle3
										{
											OFFSET -4.596550 0.000000 0.000000
											CHANNELS 3 Xrotation Yrotation Zrotation
											End Site
											{
												OFFSET -0.057701 4.578827 0.399218
											}
										}
									}
								}
								JOINT newVegas:RightHandRing1
								{
									OFFSET -17.732719 0.121887 -4.201567
									CHANNELS 3 Xrotation Yrotation Zrotation
									JOINT newVegas:RightHandRing2
									{
										OFFSET -2.733170 0.000000 0.000000
										CHANNELS 3 Xrotation Yrotation Zrotation
										JOINT newVegas:RightHandRing3
										{
											OFFSET -3.178268 0.000000 0.000000
											CHANNELS 3 Xrotation Yrotation Zrotation
											End Site
											{
												OFFSET -0.119102 3.170624 0.185394
											}
										}
									}
								}
								JOINT newVegas:RightHandPinky1
								{
									OFFSET -15.989624 -0.606689 -7.535461
									CHANNELS 3 Xrotation Yrotation Zrotation
									JOINT newVegas:RightHandPinky2
									{
										OFFSET -2.538986 0.000000 0.000000
										CHANNELS 3 Xrotation Yrotation Zrotation
										JOINT newVegas:RightHandPinky3
										{
											OFFSET -2.593102 0.000000 0.000000
											CHANNELS 3 Xrotation Yrotation Zrotation
											End Site
											{
												OFFSET 0.150902 2.584198 0.152708
											}
										}
									}
								}
							}
							JOINT newVegas:Right_CapeC
							{
								OFFSET -15.715958 -8.608795 -6.935905
								CHANNELS 3 Xrotation Yrotation Zrotation
								JOINT newVegas:Right_CapeC1
								{
									OFFSET 0.000000 -8.688499 0.000000
									CHANNELS 3 Xrotation Yrotation Zrotation
									End Site
									{
										OFFSET 0.000000 8.688499 0.000000
									}
								}
							}
							JOINT newVegas:Right_Sleeve
							{
								OFFSET -0.267448 -0.649994 0.577675
								CHANNELS 3 Xrotation Yrotation Zrotation
								End Site
								{
									OFFSET 0.000000 15.991302 0.000000
								}
							}
						}
						JOINT newVegas:Right_CapeA
						{
							OFFSET -5.115540 -8.608795 -10.395824
							CHANNELS 3 Xrotation Yrotation Zrotation
							JOINT newVegas:Right_CapeA1
							{
								OFFSET 0.000000 -8.688499 0.000000
								CHANNELS 3 Xrotation Yrotation Zrotation
								End Site
								{
									OFFSET 0.000000 8.688499 0.000000
								}
							}
						}
						JOINT newVegas:Right_CapeB
						{
							OFFSET -26.118187 -8.608795 -7.079266
							CHANNELS 3 Xrotation Yrotation Zrotation
							JOINT newVegas:Right_CapeB1
							{
								OFFSET 0.000000 -8.688499 0.000000
								CHANNELS 3 Xrotation Yrotation Zrotation
								End Site
								{
									OFFSET 0.000000 8.688499 0.000000
								}
							}
						}
					}
				}
				JOINT newVegas:Left_Collar
				{
					OFFSET 18.625099 8.655502 8.828100
					CHANNELS 3 Xrotation Yrotation Zrotation
					JOINT newVegas:Left_Collar1
					{
						OFFSET 14.783401 10.540405 -1.259500
						CHANNELS 3 Xrotation Yrotation Zrotation
						End Site
						{
							OFFSET 0.000000 18.199875 0.000000
						}
					}
				}
				JOINT newVegas:Collar_Back
				{
					OFFSET 0.000000 15.630707 -20.132601
					CHANNELS 3 Xrotation Yrotation Zrotation
					End Site
					{
						OFFSET 0.000000 22.523010 0.000000
					}
				}
				JOINT newVegas:Left_Peck
				{
					OFFSET 17.239599 -5.132599 25.482599
					CHANNELS 3 Xrotation Yrotation Zrotation
					End Site
					{
						OFFSET 0.000000 22.523010 0.000000
					}
				}
				JOINT newVegas:Right_Peck
				{
					OFFSET -17.239599 -5.132202 25.482599
					CHANNELS 3 Xrotation Yrotation Zrotation
					End Site
					{
						OFFSET 0.000000 22.523010 0.000000
					}
				}
				JOINT newVegas:Right_Collar
				{
					OFFSET -18.625099 8.655792 8.828100
					CHANNELS 3 Xrotation Yrotation Zrotation
					JOINT newVegas:Right_Collar1
					{
						OFFSET -14.783401 10.539993 -1.259500
						CHANNELS 3 Xrotation Yrotation Zrotation
						End Site
						{
							OFFSET 0.000000 18.199631 0.000000
						}
					}
				}
			}
		}
		JOINT newVegas:Belly
		{
			OFFSET 0.000000 -6.540398 9.014299
			CHANNELS 3 Xrotation Yrotation Zrotation
			End Site
			{
				OFFSET 0.000000 11.566666 0.000000
			}
		}
	}
	JOINT newVegas:ElvisFacialAnim_Joint
	{
		OFFSET 1.000000 -95.330101 -8.825800
		CHANNELS 3 Xrotation Yrotation Zrotation
		End Site
		{
			OFFSET 0.000000 35.315800 0.000000
		}
	}
}
MOTION
Frames: 4
Frame Time: 0.033333
-1.323557 23.876572 -37.242989 83.420071 3.540145 15.343180 0.000001 0.000000 -0.000001 -84.719836 36.354221 48.006965 95.688683 5.321429 -2.057065 -46.959282 22.144860 15.870460 0.000001 0.000000 0.000000 0.000001 -0.000000 -0.000000 -2.509054 -9.236251 -12.798677 10.361325 -8.322482 -9.414955 22.767365 0.585363 17.173303 0.000001 0.000001 -0.000002 0.000000 0.000001 -0.000000 1.602976 -0.561895 -12.702075 2.892912 -0.794064 -4.180923 2.909329 -0.862866 -4.153296 -6.104020 2.774579 0.745264 -6.104038 2.774575 0.745262 -0.000000 -0.000000 0.000000 -6.103997 2.774571 0.745265 -6.103967 2.774572 0.745261 -0.000001 -0.000001 0.000000 -0.000000 -0.000000 -0.000000 -53.903382 -14.369956 18.791227 -53.096921 -39.016257 -51.663814 -0.000024 -54.408874 -0.000019 -136.969417 0.050118 -5.612585 -27.087484 1.001146 11.738314 19.473189 -1.474888 7.636916 -0.000001 0.000001 -0.000003 -1.882817 2.129419 -39.817021 5.828587 5.851014 -89.779422 0.000001 -0.000002 0.000001 0.405912 5.507022 -52.453162 7.306679 5.667716 -104.429317 0.000001 -0.000000 0.000002 -0.074380 5.736755 -61.061447 7.406178 5.641288 -105.438983 -0.000002 0.000001 0.000001 2.216816 7.072488 -64.435438 4.422605 5.674596 -75.845767 -0.000006 0.000002 0.000003 -0.000001 0.000000 -0.000001 -0.000001 0.000000 -0.000001 -0.000002 0.000000 -0.000001 -0.000000 0.000000 -0.000001 0.000001 0.000000 0.000000 -0.000000 0.000000 -0.000001 -0.000000 0.000000 -0.000000 2.478035 17.921962 -13.115072 -83.400332 5.314460 59.204694 0.000038 114.393265 -0.000036 48.246134 -8.122608 17.560143 -9.476501 -17.905910 25.099009 -34.172656 -6.074927 -29.934800 -0.000002 -0.000004 -0.000001 -0.494166 9.886802 3.052965 4.494106 -4.654320 87.991148 0.000002 0.000001 -0.000001 -1.065177 -5.946078 79.423625 6.168673 -4.405563 108.957978 0.000000 0.000003 0.000001 -3.680518 -6.031666 83.530311 4.754005 -4.656147 91.192697 -0.000004 -0.000001 -0.000000 -3.541880 -7.108379 91.053252 2.431519 -4.091947 61.425428 0.000004 -0.000000 0.000003 -0.000001 0.000002 -0.000001 -0.000001 -0.000000 -0.000002 -0.000001 0.000001 -0.000001 0.000000 -0.000001 0.000001 0.000000 -0.000001 0.000001 0.000000 -0.000001 0.000001 0.000000 -0.000001 0.000001 0.000000 -0.000000 0.000000 0.000000 -0.000000 0.000000 0.000000 -0.000000 0.000000 0.000000 -0.000000 0.000000 0.000000 -0.000000 0.000000 0.000000 -0.000000 0.000000 0.000000 -0.000000 0.000000 0.000000 0.000000 -0.000000 0.000001 0.000000 -0.000001 
-1.466589 23.937111 -39.088730 83.443677 4.451029 15.708141 -0.000000 -0.000000 -0.000000 -88.780609 35.605998 48.728970 98.469943 6.453668 -0.917346 -46.797488 21.567518 16.768232 -0.000003 0.000000 -0.000000 0.000001 0.000000 0.000001 -2.072816 -9.256811 -12.001856 8.445028 -9.381568 -9.159272 24.441207 -1.339216 17.259601 -0.000001 -0.000000 -0.000001 0.000000 0.000000 -0.000000 1.766776 -0.190731 -13.884047 3.127180 -0.623790 -4.028653 3.147666 -0.678508 -3.999202 -6.236960 2.608510 0.484433 -6.236961 2.608511 0.484434 -0.000001 -0.000000 0.000000 -6.236939 2.608520 0.484429 -6.237022 2.608507 0.484435 -0.000002 0.000002 0.000000 -0.000001 -0.000000 0.000000 -54.709463 -14.564847 17.165177 -52.362894 -38.438122 -51.593415 -0.000018 -53.854693 -0.000023 -138.441856 -0.383353 -7.685891 -27.087489 1.001147 11.738319 19.473185 -1.474894 7.636913 0.000001 0.000001 -0.000004 -1.882818 2.129421 -39.817025 5.828585 5.851015 -89.779428 -0.000004 -0.000002 0.000001 0.405911 5.507024 -52.453165 7.306672 5.667714 -104.429317 -0.000000 -0.000002 0.000001 -0.074382 5.736757 -61.061447 7.406177 5.641280 -105.438989 0.000001 0.000001 -0.000002 2.216818 7.072486 -64.435438 4.422603 5.674599 -75.845767 -0.000004 -0.000004 0.000003 -0.000002 -0.000002 -0.000003 -0.000002 -0.000002 -0.000003 -0.000002 -0.000003 -0.000003 0.000000 0.000000 -0.000001 0.000000 -0.000001 0.000000 0.000000 0.000000 -0.000001 -0.000001 0.000000 -0.000000 2.425518 16.920878 -13.257620 -84.854951 7.903204 56.651778 0.000039 113.242248 -0.000037 47.932188 -8.691295 18.907043 -9.476500 -17.905910 25.099011 -34.172656 -6.074929 -29.934793 0.000001 -0.000002 -0.000003 -0.494169 9.886806 3.052962 4.494103 -4.654318 87.991148 -0.000002 0.000000 0.000001 -1.065179 -5.946078 79.423625 6.168676 -4.405562 108.957978 0.000001 0.000002 0.000001 -3.680518 -6.031664 83.530318 4.754005 -4.656138 91.192697 0.000002 -0.000001 0.000000 -3.541886 -7.108377 91.053252 2.431519 -4.091948 61.425428 -0.000002 -0.000000 0.000001 0.000001 -0.000001 0.000002 -0.000000 -0.000001 0.000001 0.000001 -0.000001 0.000002 -0.000003 0.000001 -0.000002 -0.000003 0.000001 -0.000002 -0.000003 0.000001 -0.000002 -0.000002 0.000001 -0.000001 0.000000 0.000000 -0.000000 0.000000 0.000000 -0.000000 0.000000 0.000000 -0.000000 0.000000 0.000000 -0.000000 0.000000 0.000000 -0.000000 0.000000 0.000000 -0.000000 0.000000 0.000000 -0.000000 -0.000000 0.000000 0.000000 -0.000000 -0.000000 -0.000000 
-1.584858 23.770378 -40.821701 83.227084 5.663787 15.967789 -0.000000 0.000000 -0.000001 -92.610275 34.910582 49.054197 101.049104 7.710541 0.370265 -46.599550 20.947480 17.923752 -0.000000 -0.000000 0.000001 0.000001 -0.000000 0.000001 -1.183632 -9.162907 -11.023621 6.044063 -9.190977 -8.980783 26.059769 -2.870022 17.340865 -0.000001 0.000000 -0.000002 0.000000 0.000000 -0.000001 2.060473 -0.079121 -14.830115 3.259490 -0.504080 -3.879908 3.280938 -0.548483 -3.850341 -6.573215 2.485831 0.231240 -6.573241 2.485831 0.231231 -0.000001 0.000000 0.000001 -6.573250 2.485918 0.231210 -6.573202 2.485782 0.231232 -0.000000 -0.000002 -0.000000 -0.000001 0.000000 -0.000000 -55.378843 -14.138970 16.355168 -52.397154 -38.622343 -52.797997 -0.000001 -51.635776 -0.000000 -140.883348 0.108939 -11.948444 -27.087487 1.001146 11.738317 19.473187 -1.474893 7.636917 0.000002 -0.000002 -0.000003 -1.882818 2.129419 -39.817018 5.828585 5.851017 -89.779428 0.000001 -0.000000 -0.000000 0.405913 5.507026 -52.453165 7.306674 5.667716 -104.429310 -0.000000 -0.000002 0.000001 -0.074380 5.736756 -61.061440 7.406181 5.641281 -105.438989 -0.000001 -0.000001 -0.000001 2.216819 7.072485 -64.435445 4.422606 5.674597 -75.845767 -0.000002 -0.000003 0.000001 -0.000001 0.000000 0.000001 -0.000001 0.000000 0.000001 -0.000002 -0.000000 0.000001 0.000000 -0.000001 -0.000003 0.000001 -0.000001 -0.000003 0.000000 -0.000001 -0.000003 0.000000 -0.000001 -0.000003 2.564450 15.500952 -14.121842 -85.591266 10.113445 54.585461 0.000124 112.260907 -0.000115 48.906863 -9.487385 19.677896 -9.476503 -17.905910 25.099012 -34.172656 -6.074926 -29.934800 0.000001 0.000000 0.000001 -0.494168 9.886803 3.052964 4.494104 -4.654318 87.991148 -0.000004 0.000002 -0.000000 -1.065177 -5.946083 79.423625 6.168674 -4.405565 108.957978 0.000000 -0.000002 -0.000001 -3.680518 -6.031663 83.530318 4.754007 -4.656151 91.192697 -0.000002 0.000001 -0.000001 -3.541885 -7.108379 91.053252 2.431517 -4.091948 61.425428 -0.000004 0.000003 -0.000001 -0.000000 0.000000 -0.000003 -0.000000 0.000001 0.000003 -0.000000 0.000000 -0.000003 0.000003 0.000000 -0.000001 0.000003 0.000000 -0.000000 0.000003 0.000000 -0.000001 0.000003 -0.000000 -0.000000 0.000000 -0.000000 -0.000000 0.000000 -0.000000 -0.000000 0.000000 -0.000000 -0.000000 0.000000 -0.000000 -0.000000 0.000000 -0.000000 -0.000000 0.000000 -0.000000 -0.000000 0.000000 -0.000000 -0.000000 0.000000 0.000000 0.000000 -0.000000 0.000000 -0.000001 
-1.714294 23.374977 -42.471031 82.775711 7.166675 16.194433 -0.000000 -0.000001 0.000001 -96.236983 34.260683 48.868935 103.391750 9.106923 1.706825 -46.139212 20.417729 19.539097 -0.000001 0.000000 0.000000 -0.000003 0.000001 0.000001 0.105527 -9.090449 -10.083608 3.294837 -8.852990 -8.783123 26.659567 -3.470746 17.255332 -0.000003 0.000000 0.000000 -0.000000 0.000001 -0.000000 2.370564 -0.277212 -15.505489 3.260038 -0.479314 -3.770191 3.281210 -0.519989 -3.740897 -6.955234 2.417126 -0.098253 -6.955250 2.417129 -0.098256 -0.000001 0.000000 0.000001 -6.955209 2.417110 -0.098249 -6.955235 2.417139 -0.098258 -0.000000 0.000002 0.000001 -0.000001 0.000000 -0.000000 -55.816733 -12.814821 16.108337 -53.589883 -39.319360 -55.399910 -0.000015 -48.084060 -0.000027 -143.238014 1.451860 -17.181868 -27.087484 1.001148 11.738318 19.473185 -1.474895 7.636911 0.000001 -0.000001 -0.000001 -1.882817 2.129421 -39.817021 5.828585 5.851017 -89.779428 -0.000002 -0.000000 -0.000001 0.405911 5.507020 -52.453165 7.306674 5.667717 -104.429317 -0.000000 -0.000001 -0.000000 -0.074382 5.736757 -61.061440 7.406179 5.641284 -105.438989 0.000000 -0.000001 -0.000001 2.216816 7.072488 -64.435438 4.422600 5.674597 -75.845767 -0.000001 -0.000007 -0.000000 -0.000000 -0.000002 -0.000002 -0.000000 -0.000002 -0.000002 -0.000001 -0.000002 -0.000002 -0.000000 0.000003 -0.000003 0.000001 0.000003 -0.000004 -0.000000 0.000003 -0.000003 0.000000 0.000003 -0.000003 2.962980 13.905863 -16.029460 -85.726531 11.464092 53.104605 0.000087 111.222172 -0.000081 50.382187 -9.999886 19.592292 -9.476497 -17.905906 25.099014 -34.172656 -6.074924 -29.934800 0.000003 -0.000001 0.000001 -0.494169 9.886806 3.052962 4.494103 -4.654319 87.991148 0.000001 -0.000001 -0.000000 -1.065177 -5.946082 79.423625 6.168675 -4.405569 108.957985 -0.000001 -0.000001 0.000002 -3.680516 -6.031663 83.530311 4.754008 -4.656151 91.192697 -0.000001 -0.000001 0.000001 -3.541885 -7.108380 91.053252 2.431518 -4.091944 61.425421 0.000002 0.000002 0.000000 -0.000001 0.000000 0.000000 -0.000001 0.000000 0.000001 -0.000001 0.000000 -0.000002 0.000001 -0.000001 -0.000001 0.000001 -0.000001 -0.000000 0.000001 -0.000001 -0.000001 0.000001 -0.000002 -0.000000 0.000000 -0.000001 0.000000 0.000000 -0.000001 0.000000 0.000000 -0.000001 0.000000 0.000000 -0.000001 0.000000 0.000000 -0.000001 0.000000 0.000000 -0.000001 0.000000 0.000000 -0.000001 0.000000 -0.000000 -0.000000 -0.000000 -0.000000 -0.000001 0.000001 
